<svg width="83" height="74" viewBox="0 0 83 74" fill="none" xmlns="http://www.w3.org/2000/svg">
<path d="M0.0732422 2.98569C0.0732422 1.33665 1.75753 0 3.84192 0H78.3057C80.3836 0 82.0679 1.33665 82.0679 2.98569V12.9465H0.0732422V2.98569Z" fill="#916CFF"/>
<path d="M0 12.9976V61.8168C0 63.9006 1.6858 65.5961 3.77205 65.5961H78.3023C80.3821 65.5961 82.0679 63.9071 82.0679 61.8168V12.9976H0Z" fill="#51CBFF"/>
<path d="M75.6086 6.21434C75.6086 7.5992 74.4912 8.71873 73.109 8.71873C71.7268 8.71873 70.6094 7.5992 70.6094 6.21434C70.6094 4.82949 71.7268 3.70996 73.109 3.70996C74.4912 3.70996 75.6086 4.82949 75.6086 6.21434Z" fill="white"/>
<path d="M65.9267 6.21434C65.9267 7.5992 64.8029 8.71873 63.4271 8.71873C62.0514 8.71873 60.9275 7.5992 60.9275 6.21434C60.9275 4.82949 62.0449 3.70996 63.4271 3.70996C64.8093 3.70996 65.9267 4.82949 65.9267 6.21434Z" fill="white"/>
<path d="M18.1626 22.2578H13.3184V27.1113H18.1626V22.2578Z" fill="white"/>
<path d="M31.2419 22.2578H26.3977V27.1113H31.2419V22.2578Z" fill="white"/>
<path d="M44.3218 22.2578H39.4775V27.1113H44.3218V22.2578Z" fill="white"/>
<path d="M57.4011 22.2578H52.5569V27.1113H57.4011V22.2578Z" fill="white"/>
<path d="M70.481 22.2578H65.6367V27.1113H70.481V22.2578Z" fill="white"/>
<path d="M18.1626 31.479H13.3184V36.3325H18.1626V31.479Z" fill="white"/>
<path d="M31.2419 31.479H26.3977V36.3325H31.2419V31.479Z" fill="white"/>
<path d="M44.3218 31.479H39.4775V36.3325H44.3218V31.479Z" fill="white"/>
<path d="M57.4011 31.479H52.5569V36.3325H57.4011V31.479Z" fill="white"/>
<path d="M70.481 31.479H65.6367V36.3325H70.481V31.479Z" fill="white"/>
<rect x="39.9917" y="51.7861" width="32.3663" height="21.5775" rx="2" fill="#916CFF"/>
<path d="M39.9917 53.7861C39.9917 52.6816 40.8871 51.7861 41.9917 51.7861H70.358C71.4626 51.7861 72.358 52.6816 72.358 53.7861V65.8115H39.9917V53.7861Z" fill="#163BBE"/>
<rect x="39.9917" y="48.5498" width="32.3663" height="7.55214" rx="1" fill="#163BBE"/>
<rect x="39.9917" y="42.0762" width="9.70989" height="10.7888" rx="1" fill="#163BBE"/>
<path d="M43.1177 46.9336C43.1177 45.829 44.0131 44.9336 45.1177 44.9336H66.9381C68.0426 44.9336 68.9381 45.829 68.9381 46.9336V52.3108H43.1177V46.9336Z" fill="white"/>
</svg>
