<svg width="101" height="67" viewBox="0 0 101 67" fill="none" xmlns="http://www.w3.org/2000/svg">
<rect width="82" height="67" rx="8" fill="#51CBFF"/>
<path d="M101 44.346V38.4492L97.2973 37.3586C96.9029 35.8456 96.2982 34.4274 95.5094 33.1256L97.3499 29.7677L93.1124 25.5993L89.6988 27.4012C88.3754 26.6296 86.9294 26.0347 85.4 25.6467L84.2914 22H78.2967L77.1793 25.6467C75.65 26.0347 74.1688 26.7718 72.8367 27.5434C72.8367 27.5434 75.111 29.0004 77.0435 31.604C78.9453 30.8108 81.1144 30.4746 83.393 30.8927C87.8145 31.7074 91.2895 35.2248 92.0169 39.5915C93.1343 46.2987 87.8978 52.0964 81.2897 52.0964C79.8041 52.0964 78.5596 51.73 77.3809 51.0662L72.6746 55.3121C74.0023 56.0837 75.6456 56.7691 77.1793 57.1484L78.2967 60.7952H84.2914L85.4 57.1484C86.9294 56.7691 88.3754 56.1656 89.6988 55.394L93.1124 57.1959L97.3499 53.0275L95.5094 49.6739C96.2982 48.3678 96.9073 46.9496 97.2973 45.4409L101 44.3417V44.346Z" fill="#916CFF"/>
<path d="M77.3722 51.0665C73.9279 55.1831 69.9359 56.8858 69.8307 56.9289L65.6371 52.8037L67.4644 49.4673C66.6844 48.1655 66.0753 46.7559 65.6853 45.2558L62 44.1653V38.2943L65.6853 37.208C66.0753 35.7036 66.6844 34.2941 67.4644 32.9966L65.6371 29.6516L69.7299 25.6255C72.8105 26.8023 75.4178 28.8886 77.3372 31.4836C73.4678 33.1086 70.8035 36.833 70.8035 41.2298C70.8035 45.6266 73.4634 49.4544 77.3766 51.0622L77.3722 51.0665Z" fill="#163BBE"/>
<mask id="mask0_498_5413" style="mask-type:alpha" maskUnits="userSpaceOnUse" x="62" y="22" width="39" height="39">
<path d="M101 44.346V38.4492L97.2973 37.3586C96.9029 35.8456 96.2982 34.4274 95.5094 33.1256L97.3499 29.7677L93.1124 25.5993L89.6988 27.4012C88.3754 26.6296 86.9294 26.0347 85.4 25.6467L84.2914 22H78.2967L77.1793 25.6467C75.65 26.0347 74.1688 26.7718 72.8367 27.5434C72.8367 27.5434 75.111 29.0004 77.0435 31.604C78.9453 30.8108 81.1144 30.4746 83.393 30.8927C87.8145 31.7074 91.2895 35.2248 92.0169 39.5915C93.1343 46.2987 87.8978 52.0964 81.2897 52.0964C79.8041 52.0964 78.5596 51.73 77.3809 51.0662L72.6746 55.3121C74.0023 56.0837 75.6456 56.7691 77.1793 57.1484L78.2967 60.7952H84.2914L85.4 57.1484C86.9294 56.7691 88.3754 56.1656 89.6988 55.394L93.1124 57.1959L97.3499 53.0275L95.5094 49.6739C96.2982 48.3678 96.9073 46.9496 97.2973 45.4409L101 44.3417V44.346Z" fill="#916CFF"/>
<path d="M77.3722 51.0665C73.9279 55.1831 69.9359 56.8858 69.8307 56.9289L65.6371 52.8037L67.4644 49.4673C66.6844 48.1655 66.0753 46.7559 65.6853 45.2558L62 44.1653V38.2943L65.6853 37.208C66.0753 35.7036 66.6844 34.2941 67.4644 32.9966L65.6371 29.6516L69.7299 25.6255C72.8105 26.8023 75.4178 28.8886 77.3372 31.4836C73.4678 33.1086 70.8035 36.833 70.8035 41.2298C70.8035 45.6266 73.4634 49.4544 77.3766 51.0622L77.3722 51.0665Z" fill="#163BBE"/>
</mask>
<g mask="url(#mask0_498_5413)">
<rect width="82" height="67" rx="8" fill="#163BBE"/>
</g>
<path d="M16.6902 31.3614L11 25.1807L16.6902 19" stroke="white" stroke-width="2.5" stroke-linecap="round" stroke-linejoin="round"/>
<path d="M35.6567 31.3614L41.3469 25.1807L35.6567 19" stroke="white" stroke-width="2.5" stroke-linecap="round" stroke-linejoin="round"/>
<path d="M31.8636 19L21.4316 31.3614" stroke="white" stroke-width="2.5" stroke-linecap="round" stroke-linejoin="round"/>
<rect x="11" y="41" width="5.57143" height="2.78571" fill="white"/>
<rect x="11" y="45.6431" width="20.4286" height="2.78571" fill="white"/>
<rect x="11" y="50.2856" width="24" height="2.78571" fill="white"/>
<rect x="18.4282" y="41" width="5.57143" height="2.78571" fill="white"/>
<rect x="25.8569" y="41" width="5.57143" height="2.78571" fill="white"/>
<path d="M0 7C0 3.13401 3.13401 0 7 0H75C78.866 0 82 3.13401 82 7H0Z" fill="#916CFF"/>
</svg>
