<svg width="22" height="32" viewBox="0 0 22 32" fill="none" xmlns="http://www.w3.org/2000/svg">
<g clip-path="url(#clip0_531_3240)">
<path d="M11.599 5.62575C10.2034 5.62575 9.07199 4.48088 9.07199 3.06861C9.07199 1.65634 10.2034 0.511475 11.599 0.511475C12.9946 0.511475 14.126 1.65634 14.126 3.06861C14.126 4.48088 12.9946 5.62575 11.599 5.62575Z" stroke="black" stroke-linecap="round" stroke-linejoin="round"/>
<path d="M3.54797 16.8873C3.35592 17.7209 2.52707 18.2477 1.69821 18.0585C0.874412 17.8641 0.353851 17.0254 0.540849 16.1866C0.540849 16.1866 1.19281 10.8371 1.21303 10.7808C1.26357 10.2592 1.57186 9.76822 2.07221 9.52785L7.90451 7.44122C9.12757 7.01674 9.90083 7.1088 10.3001 7.17528C10.8661 7.27245 11.8163 7.33382 12.4076 8.37714L15.0508 12.9851L19.9886 12.668C20.8377 12.6885 21.5149 13.4045 21.4947 14.2585C21.4745 15.1177 20.7669 15.8031 19.9229 15.7826C19.9229 15.7826 14.6111 16.2275 14.5556 16.2173C14.04 16.2736 13.5043 16.069 13.1657 15.6241L11.8062 13.3584L10.4972 17.7567L15.2328 21.7612C16.0566 22.7022 15.5866 23.8018 15.5866 23.8018L14.0502 29.9849C13.8733 30.8237 13.0495 31.3607 12.2206 31.1817C11.3918 31.0027 10.8611 30.169 11.038 29.3303L12.443 23.4233L7.80343 20.0581L4.60931 30.4912C4.30607 31.2942 3.41151 31.6931 2.61804 31.3862C1.82456 31.0794 1.43035 30.1691 1.73359 29.3712L7.11608 11.0161L4.11907 12.0901L3.55302 16.8924L3.54797 16.8873Z" stroke="black" stroke-linecap="round" stroke-linejoin="round"/>
</g>
<defs>
<clipPath id="clip0_531_3240">
<rect width="22" height="32" fill="white" transform="matrix(-1 0 0 1 22 0)"/>
</clipPath>
</defs>
</svg>
