<svg width="14" height="14" viewBox="0 0 14 14" fill="none" xmlns="http://www.w3.org/2000/svg">
<g id="Icon/reload">
<path id="reload" d="M7.01322 0C8.76132 0 10.4105 0.649141 11.6888 1.79539V0.583242C11.6888 0.260859 11.9504 0 12.2731 0C12.5959 0 12.8575 0.260859 12.8575 0.583242V2.91648C12.8575 3.55988 12.3331 4.08324 11.6885 4.08324H9.35087C9.02815 4.08324 8.76653 3.82238 8.76653 3.5C8.76653 3.17762 9.02843 2.91676 9.35087 2.91676H11.1801C10.0837 1.80086 8.59558 1.16676 7.01295 1.16676C3.79043 1.16676 1.16869 3.78355 1.16869 7C1.16869 10.2164 3.79043 12.8332 7.01295 12.8332C10.0579 12.8332 12.5605 10.5536 12.8334 7.53074C12.8621 7.21 13.1407 6.9732 13.4681 7.00219C13.7895 7.03145 14.0262 7.31473 13.9977 7.63574C13.67 11.2643 10.6672 14 7.01322 14C3.14609 14 0 10.8598 0 7C0 3.14016 3.14609 0 7.01322 0Z" fill="black"/>
</g>
</svg>
