<svg width="54" height="56" viewBox="0 0 54 56" fill="none" xmlns="http://www.w3.org/2000/svg">
<circle cx="33.2307" cy="21.7688" r="20.7688" fill="#51CBFF"/>
<path d="M17.7871 34.0763C15.1598 30.6948 13.5713 26.4527 13.5713 21.8211C13.5917 10.8776 22.4102 2.00391 33.306 2.00391C44.2018 2.00391 53.0203 10.8776 53.0203 21.8416C53.0203 30.2235 47.8473 37.3962 40.5359 40.3063" fill="#51CBFF"/>
<path d="M0 47.0051C2.19953 46.3083 4.27687 45.509 6.27274 44.2589C8.71667 42.7424 10.2441 38.1519 17.9221 37.4756C22.5656 37.0657 26.0074 36.5124 29.5919 36.041C31.8525 35.7541 33.8891 35.6721 34.5815 37.783C35.2332 39.7094 33.7873 40.898 31.9747 41.5743C28.3699 42.7629 26.2722 43.5212 22.0564 44.4229C27.3109 46.4722 30.1417 47.3944 39.1028 45.0172C40.8135 44.5663 47.4121 41.0619 49.2858 40.0987C50.5078 39.4634 52.1167 39.4839 52.8091 40.816C53.4609 42.0456 53.0332 43.5007 51.8723 44.2589C49.4691 45.8369 44.3165 49.3413 42.3206 50.366C39.5101 51.78 32.0358 54.7106 28.3088 54.3622C22.423 53.8089 17.9832 51.7596 10.7533 54.9565" fill="#916CFF"/>
<mask id="mask0_538_2407" style="mask-type:alpha" maskUnits="userSpaceOnUse" x="12" y="1" width="42" height="42">
<circle cx="33.2307" cy="21.7688" r="20.7688" fill="#51CBFF"/>
</mask>
<g mask="url(#mask0_538_2407)">
<path d="M0.999023 46.175C3.19856 45.4782 5.27589 44.679 7.27176 43.4289C9.71569 41.9123 11.2431 37.3218 18.9211 36.6455C23.5646 36.2356 27.0065 35.6823 30.5909 35.2109C32.8515 34.924 34.8881 34.8421 35.5806 36.9529C36.2323 38.8793 34.7863 40.0679 32.9737 40.7442C29.3689 41.9328 27.2712 42.6911 23.0554 43.5928C28.3099 45.6421 31.1408 46.5644 40.1018 44.1871C41.8126 43.7363 48.4112 40.2319 50.2848 39.2687C51.5068 38.6334 53.1157 38.6539 53.8082 39.9859C54.4599 41.2155 54.0322 42.6706 52.8713 43.4289C50.4681 45.0069 45.3155 48.5112 43.3197 49.5359C40.5091 50.95 33.0348 53.8805 29.3078 53.5322C23.422 52.9788 18.9822 50.9295 11.7523 54.1265" fill="#1D3CAB"/>
</g>
<path d="M29.3764 16.0016H35.2826V28.6051H37.9505C38.9281 28.6051 39.702 29.4043 39.702 30.3675C39.702 31.3307 38.9077 32.13 37.9505 32.13H28.6636C27.686 32.13 26.9121 31.3307 26.9121 30.3675C26.9121 29.4043 27.7064 28.6051 28.6636 28.6051H31.7796V19.5265H29.3764C28.3988 19.5265 27.6249 18.7477 27.6249 17.764C27.6249 16.7803 28.4192 16.0016 29.3764 16.0016ZM33.3885 13.6653C34.6308 13.6653 35.6288 12.6611 35.6288 11.411C35.6288 10.1609 34.6308 9.15674 33.3885 9.15674C32.1462 9.15674 31.1482 10.1609 31.1482 11.411C31.1482 12.6611 32.1462 13.6653 33.3885 13.6653Z" fill="white"/>
</svg>
