<svg width="58" height="52" viewBox="0 0 58 52" fill="none" xmlns="http://www.w3.org/2000/svg">
<path d="M58 6.82556C58 3.0567 55.0701 0 51.4575 0H6.54245C2.92991 0 0 3.0567 0 6.82556V35H58V6.82556Z" fill="#51CBFF"/>
<path d="M0 35V38.1361C0 40.8218 2.92953 43 6.54158 43H51.4584C55.0705 43 58 40.8218 58 38.1361V35H0Z" fill="#916CFF"/>
<path d="M39.7143 51.9612H19L22.2695 40.5381H36.4371L39.7143 51.9612Z" fill="#916CFF"/>
<path d="M34.9821 37.9419L36.5357 43.1342H21L22.5536 37.9419H34.9821Z" fill="#1D3CAB"/>
<rect x="30" width="2" height="35" fill="white"/>
<rect x="31" y="20" width="2" height="27" transform="rotate(-90 31 20)" fill="white"/>
<path d="M46.7914 6.29407C46.7914 7.56085 45.7656 8.58814 44.5005 8.58814C43.2355 8.58814 42.2096 7.56085 42.2096 6.29407C42.2096 5.02729 43.2355 4 44.5005 4C45.7656 4 46.7914 5.02729 46.7914 6.29407Z" fill="white"/>
<path d="M49 13.832C49 10.9329 46.986 8.58838 44.5 8.58838C42.014 8.58838 40 10.9329 40 13.832H49Z" fill="white"/>
<path d="M46.7914 24.2941C46.7914 25.5608 45.7656 26.5881 44.5005 26.5881C43.2355 26.5881 42.2096 25.5608 42.2096 24.2941C42.2096 23.0273 43.2355 22 44.5005 22C45.7656 22 46.7914 23.0273 46.7914 24.2941Z" fill="white"/>
<path d="M49 31.832C49 28.9329 46.986 26.5884 44.5 26.5884C42.014 26.5884 40 28.9329 40 31.832H49Z" fill="white"/>
<path d="M20.2155 13.1263C20.2155 15.4048 18.3703 17.2526 16.0949 17.2526C13.8195 17.2526 11.9743 15.4048 11.9743 13.1263C11.9743 10.8478 13.8195 9 16.0949 9C18.3703 9 20.2155 10.8478 20.2155 13.1263Z" fill="white"/>
<path d="M24.1881 26.6844C24.1881 21.4699 20.5656 17.2529 16.094 17.2529C11.6225 17.2529 8 21.4699 8 26.6844H24.1881Z" fill="white"/>
</svg>
