<svg width="50" height="54" viewBox="0 0 50 54" fill="none" xmlns="http://www.w3.org/2000/svg">
<path d="M0 4C0 1.79086 1.79086 0 4 0H46C48.2091 0 50 1.79086 50 4V45.5V50C50 52.2091 48.2091 54 46 54H42H4C1.79086 54 0 52.2091 0 50V4Z" fill="#51CBFF"/>
<path d="M19.052 12.7333C19.052 14.7949 17.3825 16.4667 15.3238 16.4667C13.2651 16.4667 11.5956 14.7949 11.5956 12.7333C11.5956 10.6718 13.2651 9 15.3238 9C17.3825 9 19.052 10.6718 19.052 12.7333Z" fill="white"/>
<path d="M22.6465 25.0001C22.6465 20.2822 19.3689 16.4668 15.3232 16.4668C11.2775 16.4668 8 20.2822 8 25.0001H22.6465Z" fill="white"/>
<path d="M37 54L50 41H37V54Z" fill="#916CFF"/>
<path d="M50 41L37 54L50 54L50 41Z" fill="white"/>
<path d="M40 12H26C25.4477 12 25 12.4477 25 13C25 13.5523 25.4477 14 26 14H40C40.5523 14 41 13.5523 41 13C41 12.4477 40.5523 12 40 12Z" fill="white"/>
<path d="M40 18H26C25.4477 18 25 18.4477 25 19C25 19.5523 25.4477 20 26 20H40C40.5523 20 41 19.5523 41 19C41 18.4477 40.5523 18 40 18Z" fill="white"/>
<path d="M34 31H9C8.44772 31 8 31.4477 8 32C8 32.5523 8.44771 33 9 33H34C34.5523 33 35 32.5523 35 32C35 31.4477 34.5523 31 34 31Z" fill="white"/>
<path d="M25 37H9C8.44772 37 8 37.4477 8 38C8 38.5523 8.44772 39 9 39H25C25.5523 39 26 38.5523 26 38C26 37.4477 25.5523 37 25 37Z" fill="white"/>
<path d="M29 43H9C8.44772 43 8 43.4477 8 44C8 44.5523 8.44772 45 9 45H29C29.5523 45 30 44.5523 30 44C30 43.4477 29.5523 43 29 43Z" fill="white"/>
</svg>
