<svg width="88" height="77" viewBox="0 0 88 77" fill="none" xmlns="http://www.w3.org/2000/svg">
<rect width="71" height="77" rx="8" fill="#51CBFF"/>
<path d="M88 32.9453V39.0389C88 40.9487 87.8357 42.8276 87.5187 44.6715C87.4155 44.6367 87.3124 44.6057 87.2054 44.5786C86.2427 44.3229 85.238 44.1834 84.1951 44.1834C77.7503 44.1834 72.5204 49.479 72.5204 56.0181C72.5204 59.2489 73.8002 62.1776 75.8708 64.3159C75.9319 64.3779 75.993 64.4399 76.0542 64.498C74.9272 65.4316 73.7315 66.2955 72.4746 67.078L71 68L69.4987 67.0664C59.8679 61.0735 54 50.4397 54 38.9808V32.8407C54.6915 32.9414 55.3982 33.015 56.1202 33.015C61.7856 33.015 66.6946 29.761 69.1472 25H73.6092C76.0656 29.761 80.9746 33.015 86.64 33.015C87.0984 33.015 87.5492 32.9879 88 32.9453Z" fill="#916CFF"/>
<mask id="mask0_498_5400" style="mask-type:alpha" maskUnits="userSpaceOnUse" x="0" y="0" width="71" height="77">
<rect width="71" height="77" rx="8" fill="#51CBFF"/>
</mask>
<g mask="url(#mask0_498_5400)">
<path d="M88 32.9453V39.0389C88 40.9487 87.8357 42.8276 87.5187 44.6715C87.4155 44.6367 87.3124 44.6057 87.2054 44.5786C86.2427 44.3229 85.238 44.1834 84.1951 44.1834C77.7503 44.1834 72.5204 49.479 72.5204 56.0181C72.5204 59.2489 73.8002 62.1776 75.8708 64.3159C75.9319 64.3779 75.993 64.4399 76.0542 64.498C74.9272 65.4316 73.7315 66.2955 72.4746 67.078L71 68L69.4987 67.0664C59.8679 61.0735 54 50.4397 54 38.9808V32.8407C54.6915 32.9414 55.3982 33.015 56.1202 33.015C61.7856 33.015 66.6946 29.761 69.1472 25H73.6092C76.0656 29.761 80.9746 33.015 86.64 33.015C87.0984 33.015 87.5492 32.9879 88 32.9453Z" fill="#163BBE"/>
</g>
<path d="M80.5001 40C79.7001 40 73.5001 49 70.5001 53.5C70.0001 55.8333 70.5 64.1 70.5 64.5C70.5 64.9 73.6667 63.5 76.0001 64.5C81.6001 60.9 86.0001 49.6667 87.5001 44.5C85.5001 43 81.3001 40 80.5001 40Z" fill="#916CFF"/>
<mask id="path-6-inside-1_498_5400" fill="white">
<path d="M69.5772 55L61 46.4569L62.639 44.8245L69.5772 51.7408L80.361 41L82 42.6267L69.5772 55Z"/>
</mask>
<path d="M69.5772 55L61 46.4569L62.639 44.8245L69.5772 51.7408L80.361 41L82 42.6267L69.5772 55Z" fill="white"/>
<path d="M69.5772 55L66.7544 57.8341C68.3152 59.3886 70.8392 59.3886 72.4 57.8341L69.5772 55ZM61 46.4569L58.1772 43.6229C57.4236 44.3735 57 45.3933 57 46.4569C57 47.5206 57.4236 48.5404 58.1772 49.291L61 46.4569ZM62.639 44.8245L65.463 41.9916C63.9023 40.4359 61.3775 40.4354 59.8162 41.9904L62.639 44.8245ZM69.5772 51.7408L66.7533 54.5737C68.3139 56.1294 70.8387 56.1299 72.4 54.5749L69.5772 51.7408ZM80.361 41L83.1788 38.1609C81.6172 36.6111 79.0971 36.6133 77.5382 38.1659L80.361 41ZM82 42.6267L84.8228 45.4608C85.5772 44.7093 86.0009 43.688 86 42.6232C85.9991 41.5583 85.5736 40.5378 84.8178 39.7876L82 42.6267ZM72.4 52.1659L63.8228 43.6229L58.1772 49.291L66.7544 57.8341L72.4 52.1659ZM63.8228 49.291L65.4618 47.6585L59.8162 41.9904L58.1772 43.6229L63.8228 49.291ZM59.815 47.6574L66.7533 54.5737L72.4012 48.9079L65.463 41.9916L59.815 47.6574ZM72.4 54.5749L83.1838 43.8341L77.5382 38.1659L66.7544 48.9068L72.4 54.5749ZM77.5432 43.8391L79.1822 45.4658L84.8178 39.7876L83.1788 38.1609L77.5432 43.8391ZM79.1772 39.7926L66.7544 52.1659L72.4 57.8341L84.8228 45.4608L79.1772 39.7926Z" fill="white" mask="url(#path-6-inside-1_498_5400)"/>
<path d="M42.3412 21.5333C42.3412 25.1411 39.4196 28.0667 35.8168 28.0667C32.2141 28.0667 29.2925 25.1411 29.2925 21.5333C29.2925 17.9256 32.2141 15 35.8168 15C39.4196 15 42.3412 17.9256 42.3412 21.5333Z" fill="white"/>
<path d="M48.6314 43.0003C48.6314 34.7438 42.8957 28.0669 35.8157 28.0669C28.7357 28.0669 23 34.7438 23 43.0003H48.6314Z" fill="white"/>
<path d="M43.3153 55.7323H28.3662C27.6114 55.7323 27 55.121 27 54.3662C27 53.6114 27.6114 53 28.3662 53H43.3153C44.0701 53 44.6814 53.6114 44.6814 54.3662C44.6814 55.121 44.0701 55.7323 43.3153 55.7323Z" fill="white"/>
<path d="M48.6048 64H22.3952C21.0719 64 20 63.3288 20 62.5C20 61.6713 21.0719 61 22.3952 61H48.6048C49.9281 61 51 61.6713 51 62.5C51 63.3288 49.9281 64 48.6048 64Z" fill="white"/>
</svg>
