<svg width="65" height="27" viewBox="0 0 65 27" fill="none" xmlns="http://www.w3.org/2000/svg">
<g clip-path="url(#clip0_1336_2419)">
<path d="M64.6112 5.8254C64.6112 5.8254 64.2336 3.17948 63.0714 2.01538C61.5974 0.487486 59.948 0.477785 59.1903 0.390477C53.7693 0.00244141 45.6367 0.00244141 45.6367 0.00244141H45.6197C45.6197 0.00244141 37.4871 0.00244141 32.0661 0.390477C31.3084 0.48021 29.659 0.487486 28.185 2.01538C27.0228 3.17948 26.6452 5.8254 26.6452 5.8254C26.6452 5.8254 26.2578 8.93211 26.2578 12.0388V14.9515C26.2578 18.0582 26.6452 21.1649 26.6452 21.1649C26.6452 21.1649 27.0228 23.8108 28.185 24.975C29.659 26.5028 31.5935 26.4543 32.4559 26.6168C35.555 26.9127 45.627 27.0024 45.627 27.0024C45.627 27.0024 53.7669 26.9903 59.1878 26.6023C59.9455 26.5125 61.595 26.5053 63.069 24.975C64.2311 23.8084 64.6088 21.1649 64.6088 21.1649C64.6088 21.1649 64.9961 18.0582 64.9961 14.9515V12.0388C64.9961 8.93211 64.6088 5.8254 64.6088 5.8254" fill="#DA1725"/>
<path d="M24.9848 21.8487H22.5192V20.4275C21.5861 21.4946 20.7918 22.0306 19.9293 22.0306C19.1716 22.0306 18.6454 21.6765 18.3822 21.0314C18.2214 20.641 18.1094 20.0298 18.1094 19.1325V8.80103H20.575V19.3895C20.6335 19.7509 20.7869 19.8843 21.1012 19.8843C21.5739 19.8843 22.0003 19.4769 22.5216 18.7444V8.80103H24.9873V21.8439L24.9848 21.8487Z" fill="white"/>
<path d="M16.2912 13.0696C16.2912 11.6751 16.0086 10.6298 15.5116 9.97013C14.8537 9.07765 13.8256 8.71387 12.7877 8.71387C11.6134 8.71387 10.7192 9.08008 10.0638 9.97013C9.5595 10.6298 9.28906 11.6872 9.28906 13.0817V17.7187C9.28906 19.1035 9.52783 20.0615 10.0322 20.7139C10.6875 21.6039 11.7522 22.0744 12.7901 22.0744C13.828 22.0744 14.9098 21.6039 15.5676 20.7139C16.0646 20.0615 16.2936 19.1035 16.2936 17.7187V13.0696H16.2912ZM13.8256 17.9758C13.9547 19.2684 13.5527 19.9087 12.7877 19.9087C12.0227 19.9087 11.6207 19.2684 11.7498 17.9758V12.8101C11.6207 11.5198 12.0227 10.9135 12.7877 10.9135C13.5527 10.9135 13.9572 11.5198 13.828 12.8101V17.9758H13.8256Z" fill="white"/>
<path d="M6.56021 14.7477V21.8512H3.96547V14.7477C3.96547 14.7477 1.27815 6.03873 0.722656 4.41626H3.44652L5.26649 11.219L7.07915 4.41626H9.80302L6.56021 14.7477Z" fill="white"/>
<path d="M61.7558 15.7809V13.1399C61.7558 11.7599 61.4829 10.751 60.9907 10.0987C60.3329 9.21587 59.3974 8.7478 58.2206 8.7478C57.0438 8.7478 56.0863 9.21587 55.4066 10.0987C54.9071 10.751 54.6172 11.8181 54.6172 13.1957V17.7163C54.6172 19.0865 54.9364 20.0469 55.4358 20.6944C56.1156 21.5772 57.0511 22.0162 58.2791 22.0162C59.507 22.0162 60.4694 21.5554 61.1199 20.6168C61.4049 20.2046 61.5901 19.7341 61.6681 19.2175C61.69 18.9822 61.7509 18.4487 61.7509 17.6969V17.3307H59.2853C59.2853 18.2692 59.2902 18.827 59.2682 18.9531C59.1342 19.5788 58.798 19.8917 58.2182 19.8917C57.4117 19.8917 57.0706 19.2927 57.0804 18.0995V15.7809H61.7558ZM57.0804 12.4172C57.0804 11.2094 57.4117 10.882 58.1962 10.882C58.9807 10.882 59.2853 11.2409 59.2853 12.4341V13.8432H57.0804V12.4172Z" fill="white"/>
<path d="M50.8704 8.72843C50.0055 8.72843 49.1479 9.25713 48.3902 10.186V4.54492H46.0586V21.8489H48.3926V20.549C49.182 21.5166 50.0372 22.0162 50.8704 22.0162C51.806 22.0162 52.4882 21.5191 52.8025 20.5587C52.9584 20.0106 53.0607 19.169 53.0607 17.9758V12.8101C53.0607 11.5878 52.9024 10.7511 52.7464 10.2321C52.4321 9.26683 51.8036 8.72843 50.868 8.72843M50.5976 18.1043C50.5976 19.3946 50.2906 19.8917 49.6133 19.8917C49.2259 19.8917 48.78 19.6929 48.3878 19.3024V11.4714C48.7825 11.0857 49.2259 10.882 49.6133 10.882C50.2906 10.882 50.5976 11.2604 50.5976 12.553V18.1068V18.1043Z" fill="white"/>
<path d="M44.1098 21.8489H41.6442V20.4277C40.7086 21.4948 39.9168 22.0308 39.0543 22.0308C38.2966 22.0308 37.7704 21.6767 37.5072 21.0316C37.3464 20.6411 37.2344 20.0299 37.2344 19.1326V8.93213H39.7V19.3921C39.7585 19.7535 39.9119 19.8869 40.2262 19.8869C40.6989 19.8869 41.1253 19.4794 41.6466 18.747V8.93213H44.1123V21.8464L44.1098 21.8489Z" fill="white"/>
<path d="M34.7703 21.8489H32.1755V6.99925H29.4492V4.54735L37.6233 4.54492V6.99925H34.7703V21.8489Z" fill="white"/>
</g>
<defs>
<clipPath id="clip0_1336_2419">
<rect width="65" height="27" fill="white"/>
</clipPath>
</defs>
</svg>
