<svg width="67" height="46" viewBox="0 0 67 46" fill="none" xmlns="http://www.w3.org/2000/svg">
<rect x="4.32324" width="58.3548" height="5.47616" rx="2.73808" fill="#51CBFF"/>
<rect x="4.32324" y="32.8574" width="58.3548" height="5.47616" rx="2.73808" fill="#51CBFF"/>
<rect x="9.72656" y="4.38135" width="47.5484" height="31.7617" fill="#51CBFF"/>
<rect x="16.2109" y="10.9526" width="22.6935" height="2.19046" rx="1.09523" fill="white"/>
<rect x="16.2109" y="16.4287" width="17.2903" height="2.19046" rx="1.09523" fill="white"/>
<rect x="16.2109" y="21.9048" width="20.5323" height="2.19046" rx="1.09523" fill="white"/>
<path d="M58.4867 20.8855C58.4867 24.9654 55.2267 28.2739 51.2067 28.2739C47.1867 28.2739 43.9268 24.9654 43.9268 20.8855C43.9268 16.8056 47.1867 13.4971 51.2067 13.4971C55.2267 13.4971 58.4867 16.8056 58.4867 20.8855Z" fill="#916CFF"/>
<path d="M65.5042 45.1627C65.5042 35.8257 59.1042 28.2749 51.2042 28.2749C43.3043 28.2749 36.9043 35.8257 36.9043 45.1627H65.5042Z" fill="#916CFF"/>
<mask id="mask0_538_2328" style="mask-type:alpha" maskUnits="userSpaceOnUse" x="1" y="0" width="59" height="39">
<rect x="1.0791" width="58.3548" height="5.47616" rx="2.73808" fill="#51CBFF"/>
<rect x="1.0791" y="32.8574" width="58.3548" height="5.47616" rx="2.73808" fill="#51CBFF"/>
<rect x="6.48242" y="4.38135" width="47.5484" height="31.7617" fill="#51CBFF"/>
<rect x="12.9668" y="10.9526" width="22.6935" height="2.19046" rx="1.09523" fill="white"/>
<rect x="12.9668" y="16.4287" width="17.2903" height="2.19046" rx="1.09523" fill="white"/>
<rect x="12.9668" y="21.9048" width="20.5323" height="2.19046" rx="1.09523" fill="white"/>
</mask>
<g mask="url(#mask0_538_2328)">
<path d="M58.4857 20.885C58.4857 24.9649 55.2257 28.2734 51.2058 28.2734C47.1858 28.2734 43.9258 24.9649 43.9258 20.885C43.9258 16.8051 47.1858 13.4966 51.2058 13.4966C55.2257 13.4966 58.4857 16.8051 58.4857 20.885Z" fill="#1D3CAB"/>
<path d="M65.5032 45.1622C65.5032 35.8252 59.1032 28.2744 51.2033 28.2744C43.3033 28.2744 36.9033 35.8252 36.9033 45.1622H65.5032Z" fill="#1D3CAB"/>
</g>
<path d="M41.7069 37.2381C41.0605 37.2381 40.4597 36.823 40.2544 36.1777L34.6498 18.3885C34.3988 17.5922 34.8475 16.7469 35.646 16.4979C36.4483 16.2488 37.3 16.6941 37.5509 17.4866L43.1556 35.2758C43.4065 36.072 42.9578 36.9174 42.1593 37.1664C42.0073 37.2117 41.8552 37.2343 41.7069 37.2343V37.2381Z" fill="#1D3CAB"/>
<path d="M54.0322 31.7622L59.4355 32.1881V39.0029L54.0322 39.4288V31.7622Z" fill="#916CFF"/>
</svg>
