<svg width="35" height="47" viewBox="0 0 35 47" fill="none" xmlns="http://www.w3.org/2000/svg">
<g clip-path="url(#clip0_538_1977)">
<path d="M1.23535 2.7998C3.55359 2.7998 5.23359 3.34337 6.58829 4.16485V19.5808C5.23359 18.7635 3.55359 18.2158 1.23535 18.2158V2.7998Z" fill="#51CBFF"/>
<path d="M35.0002 2.7998V18.2158C25.5666 18.2158 25.9372 26.8025 17.8008 26.8025C14.2802 26.8025 12.4231 25.1963 10.7061 23.3776V7.95754C12.4231 9.78033 14.2802 11.3824 17.8008 11.3824C25.9372 11.3824 25.5666 2.7998 35.0002 2.7998Z" fill="#51CBFF"/>
<path d="M10.706 7.95725V23.3773C10.6854 23.3528 10.6607 23.3324 10.6401 23.3079C9.42956 22.0123 8.28073 20.6268 6.6625 19.6255C6.63779 19.6092 6.61308 19.5969 6.58838 19.5806V4.16455C6.61308 4.1809 6.63779 4.19316 6.6625 4.20951C8.28073 5.20673 9.42956 6.59629 10.6401 7.88777C10.6607 7.91229 10.6854 7.93272 10.706 7.95725Z" fill="#0060D3"/>
<path d="M6.6625 4.20957C6.63779 4.19322 6.61308 4.18096 6.58838 4.16461V0H10.706V7.9573C10.6854 7.93278 10.6607 7.91235 10.6401 7.88783C9.42956 6.59635 8.28073 5.20678 6.6625 4.20957Z" fill="#916CFF"/>
<path d="M17.7059 42.913V47H0V42.913H6.58824V19.5806C6.61294 19.5969 6.63765 19.6092 6.66235 19.6255C8.28059 20.6268 9.42941 22.0123 10.64 23.3079C10.6606 23.3324 10.6853 23.3528 10.7059 23.3773V42.913H17.7059Z" fill="#916CFF"/>
</g>
<defs>
<clipPath id="clip0_538_1977">
<rect width="35" height="47" fill="white"/>
</clipPath>
</defs>
</svg>
