<svg width="61" height="52" viewBox="0 0 61 52" fill="none" xmlns="http://www.w3.org/2000/svg">
<circle cx="26" cy="26" r="26" fill="#51CBFF"/>
<rect x="24" y="10" width="2" height="17" rx="1" fill="white"/>
<rect x="41" y="25" width="2" height="16" rx="1" transform="rotate(90 41 25)" fill="white"/>
<path d="M36.514 39.674H38.642L38.418 38.792C38.138 37.756 37.872 36.51 37.592 35.446H37.536C37.284 36.538 37.004 37.756 36.738 38.792L36.514 39.674ZM39.72 44L39.118 41.606H36.038L35.436 44H32.888L36.122 33.584H39.118L42.352 44H39.72ZM43.1662 44V33.584H46.8062C48.9622 33.584 50.6842 34.158 50.6842 36.16C50.6842 37.084 50.1662 38.092 49.3262 38.414V38.47C50.3762 38.75 51.1742 39.534 51.1742 40.92C51.1742 43.048 49.3682 44 47.1002 44H43.1662ZM45.6722 37.714H46.7082C47.7722 37.714 48.2482 37.252 48.2482 36.538C48.2482 35.796 47.7582 35.488 46.7082 35.488H45.6722V37.714ZM45.6722 42.082H46.9182C48.1222 42.082 48.7382 41.648 48.7382 40.752C48.7382 39.898 48.1362 39.562 46.9182 39.562H45.6722V42.082ZM57.0306 44.196C54.3846 44.196 52.1446 42.376 52.1446 38.848C52.1446 35.376 54.4686 33.388 57.1146 33.388C58.4726 33.388 59.5646 34.018 60.2786 34.746L58.9626 36.342C58.4446 35.866 57.8986 35.53 57.1566 35.53C55.8126 35.53 54.7066 36.734 54.7066 38.764C54.7066 40.836 55.6586 42.04 57.1286 42.04C57.9546 42.04 58.6266 41.62 59.1166 41.088L60.4326 42.656C59.5506 43.678 58.3886 44.196 57.0306 44.196Z" fill="#916CFF"/>
<mask id="mask0_1030_618" style="mask-type:alpha" maskUnits="userSpaceOnUse" x="0" y="0" width="52" height="52">
<circle cx="26" cy="26" r="26" fill="#51CBFF"/>
</mask>
<g mask="url(#mask0_1030_618)">
<path d="M36.514 39.674H38.642L38.418 38.792C38.138 37.756 37.872 36.51 37.592 35.446H37.536C37.284 36.538 37.004 37.756 36.738 38.792L36.514 39.674ZM39.72 44L39.118 41.606H36.038L35.436 44H32.888L36.122 33.584H39.118L42.352 44H39.72ZM43.1662 44V33.584H46.8062C48.9622 33.584 50.6842 34.158 50.6842 36.16C50.6842 37.084 50.1662 38.092 49.3262 38.414V38.47C50.3762 38.75 51.1742 39.534 51.1742 40.92C51.1742 43.048 49.3682 44 47.1002 44H43.1662ZM45.6722 37.714H46.7082C47.7722 37.714 48.2482 37.252 48.2482 36.538C48.2482 35.796 47.7582 35.488 46.7082 35.488H45.6722V37.714ZM45.6722 42.082H46.9182C48.1222 42.082 48.7382 41.648 48.7382 40.752C48.7382 39.898 48.1362 39.562 46.9182 39.562H45.6722V42.082ZM57.0306 44.196C54.3846 44.196 52.1446 42.376 52.1446 38.848C52.1446 35.376 54.4686 33.388 57.1146 33.388C58.4726 33.388 59.5646 34.018 60.2786 34.746L58.9626 36.342C58.4446 35.866 57.8986 35.53 57.1566 35.53C55.8126 35.53 54.7066 36.734 54.7066 38.764C54.7066 40.836 55.6586 42.04 57.1286 42.04C57.9546 42.04 58.6266 41.62 59.1166 41.088L60.4326 42.656C59.5506 43.678 58.3886 44.196 57.0306 44.196Z" fill="#0060D3"/>
</g>
</svg>
