<svg width="65" height="54" viewBox="0 0 65 54" fill="none" xmlns="http://www.w3.org/2000/svg">
<g clip-path="url(#clip0_1030_593)">
<rect x="36" y="19" width="13" height="22" fill="#51CBFF"/>
<path d="M48.0335 17.6731C48.7738 16.9245 49.1892 15.9143 49.1896 14.8615L49.1931 4.00128C49.1938 1.79164 47.4027 0 45.1931 0H4C1.79086 0 0 1.79086 0 4V50C0 52.2091 1.79086 54 4 54H45.1943C47.4035 54 49.1943 52.2091 49.1943 50V40.7219V37.1741C49.1943 33.6001 44.8645 31.8202 42.3508 34.3608L39.245 37.5L38.1855 38.5709C37.6516 39.1105 36.9693 39.479 36.2253 39.6295C33.5501 40.1707 31.1966 37.7598 31.7268 35.0824C31.8743 34.3376 32.2398 33.6413 32.7738 33.1014L48.0335 17.6731ZM15.7157 26.5349C11.0767 26.5349 7.31567 22.7335 7.31567 18.0446C7.31567 13.3556 11.0767 9.55426 15.7157 9.55426C20.3548 9.55426 24.1158 13.3556 24.1158 18.0446C24.1158 22.7335 20.3548 26.5349 15.7157 26.5349Z" fill="#51CBFF"/>
<path d="M49.1943 16.4995V27.4439L37.3665 39.3987L30.601 40.7674L31.9552 33.9292L49.189 16.5049H49.1943V16.4995Z" fill="#0060D3"/>
<path d="M65 11.4739L49.1943 27.444V16.4996L59.5833 5.99902L65 11.4739Z" fill="#916CFF"/>
</g>
<defs>
<clipPath id="clip0_1030_593">
<rect width="65" height="54" fill="white"/>
</clipPath>
</defs>
</svg>
