<svg width="16" height="16" viewBox="0 0 16 16" fill="none" xmlns="http://www.w3.org/2000/svg">
<g id="Icon">
<path id="Vector" d="M16 5.78755V12.1512C15.9989 12.9948 15.6474 13.8035 15.0225 14.4C14.3976 14.9964 13.5504 15.332 12.6667 15.333H3.33333C2.4496 15.332 1.60237 14.9964 0.97748 14.4C0.352588 13.8035 0.00105857 12.9948 0 12.1512L0 4.51483C0.00105857 3.67127 0.352588 2.86254 0.97748 2.26606C1.60237 1.66957 2.4496 1.33402 3.33333 1.33301H5.01867C5.32893 1.33325 5.63493 1.40208 5.91267 1.5341L8.01667 2.5421C8.10963 2.58469 8.21155 2.60645 8.31467 2.60574H12.6667C13.5504 2.60675 14.3976 2.9423 15.0225 3.53878C15.6474 4.13527 15.9989 4.94399 16 5.78755ZM1.33333 4.51483V5.15119H7.93867H14.544C14.4066 4.78025 14.1525 4.45888 13.8165 4.23106C13.4804 4.00324 13.0788 3.88009 12.6667 3.87846H8.31467C8.0044 3.87822 7.69841 3.80939 7.42067 3.67737L5.31667 2.67255C5.22398 2.62887 5.12204 2.60601 5.01867 2.60574H3.33333C2.8029 2.60574 2.29419 2.80687 1.91912 3.16489C1.54405 3.52292 1.33333 4.0085 1.33333 4.51483ZM14.6667 12.1512V6.42392H8H1.33333V12.1512C1.33333 12.6575 1.54405 13.1431 1.91912 13.5011C2.29419 13.8591 2.8029 14.0603 3.33333 14.0603H12.6667C13.1971 14.0603 13.7058 13.8591 14.0809 13.5011C14.456 13.1431 14.6667 12.6575 14.6667 12.1512Z" fill="black"/>
</g>
</svg>
