<svg width="51" height="50" viewBox="0 0 51 50" fill="none" xmlns="http://www.w3.org/2000/svg">
<path d="M50.9761 20.2436C50.9761 19.5592 50.3373 19 49.5554 19H37.4207C36.6388 19 36 19.5592 36 20.2436V50H51L50.9788 20.2436H50.9761Z" fill="#916CFF"/>
<path d="M37.8621 4H2.14186C0.963037 4 0 4.52349 0 5.16428L0.0319688 50H40V5.16428C40 4.52349 39.037 4 37.8581 4H37.8621Z" fill="#51CBFF"/>
<path d="M46 27.0132H43C42.4477 27.0132 42 27.4609 42 28.0132C42 28.5655 42.4477 29.0132 43 29.0132H46C46.5523 29.0132 47 28.5655 47 28.0132C47 27.4609 46.5523 27.0132 46 27.0132Z" fill="white"/>
<path d="M46 33.9736H43C42.4477 33.9736 42 34.4213 42 34.9736C42 35.5259 42.4477 35.9736 43 35.9736H46C46.5523 35.9736 47 35.5259 47 34.9736C47 34.4213 46.5523 33.9736 46 33.9736Z" fill="white"/>
<path d="M46 40.9341H43C42.4477 40.9341 42 41.3818 42 41.9341C42 42.4864 42.4477 42.9341 43 42.9341H46C46.5523 42.9341 47 42.4864 47 41.9341C47 41.3818 46.5523 40.9341 46 40.9341Z" fill="white"/>
<path d="M31.4231 0H8.57692C7.15373 0 6 0.539725 6 1.20551V6.79449C6 7.46027 7.15373 8 8.57692 8H31.4231C32.8463 8 34 7.46027 34 6.79449V1.20551C34 0.539725 32.8463 0 31.4231 0Z" fill="#51CBFF"/>
<path d="M18 11H14V13H18V11Z" fill="white"/>
<path d="M18 19H14V21H18V19Z" fill="white"/>
<path d="M18 27H14V29H18V27Z" fill="white"/>
<path d="M10 11H6V13H10V11Z" fill="white"/>
<path d="M10 19H6V21H10V19Z" fill="white"/>
<path d="M10 27H6V29H10V27Z" fill="white"/>
<path d="M26 11H22V13H26V11Z" fill="white"/>
<path d="M26 19H22V21H26V19Z" fill="white"/>
<path d="M26 27H22V29H26V27Z" fill="white"/>
<path d="M34 11H30V13H34V11Z" fill="white"/>
<path d="M34 19H30V21H34V19Z" fill="white"/>
<path d="M34 27H30V29H34V27Z" fill="white"/>
<path d="M22.3681 39H16.6319C15.7338 39 15 39.6445 15 40.4335V50H24V40.4335C24 39.6445 23.2662 39 22.3681 39Z" fill="white"/>
<path d="M40 19H37C36.4477 19 36 19.4477 36 20V50H40V19Z" fill="#234AD7"/>
</svg>
