<svg width="63" height="52" viewBox="0 0 63 52" fill="none" xmlns="http://www.w3.org/2000/svg">
<g clip-path="url(#clip0_538_2452)">
<rect x="34.8926" y="18.2964" width="12.6" height="21.1852" fill="#51CBFF"/>
<path d="M46.5109 17.0634C47.2568 16.3141 47.6757 15.2999 47.6761 14.2426L47.6794 4.00129C47.6801 1.79165 45.889 0 43.6794 0H4C1.79086 0 0 1.79086 0 4V48C0 50.2091 1.79086 52 4 52H43.6807C45.8898 52 47.6807 50.2091 47.6807 48V39.2137V36.1129C47.6807 32.5452 43.3637 30.7624 40.8463 33.2904L38.0374 36.1111L37.0106 37.1423C36.493 37.662 35.833 38.0166 35.1139 38.1611C32.5195 38.6826 30.2339 36.375 30.7512 33.7798C30.8946 33.0605 31.248 32.3952 31.7654 31.8754L46.5109 17.0634ZM15.2322 25.5521C10.7358 25.5521 7.09058 21.8915 7.09058 17.3762C7.09058 12.861 10.7358 9.2004 15.2322 9.2004C19.7285 9.2004 23.3738 12.861 23.3738 17.3762C23.3738 21.8915 19.7285 25.5521 15.2322 25.5521Z" fill="#51CBFF"/>
<path d="M47.6804 15.8882V26.4272L36.2166 37.9393L29.6592 39.2573L30.9717 32.6723L47.6753 15.8933H47.6804V15.8882Z" fill="#0060D3"/>
<path d="M63 11.0489L47.6807 26.4275V15.8885L57.75 5.77686L63 11.0489Z" fill="#916CFF"/>
<rect x="5.81543" y="5.77783" width="18.4154" height="22.1481" fill="#51CBFF"/>
<rect x="6.78418" y="10.5928" width="23.2615" height="1.92593" rx="0.962963" fill="white"/>
<rect x="6.78418" y="16.3706" width="17.4462" height="1.92593" rx="0.962963" fill="white"/>
<rect x="6.78418" y="22.1479" width="13.5692" height="1.92593" rx="0.962963" fill="white"/>
<rect x="6.78418" y="27.9258" width="17.4462" height="1.92593" rx="0.962963" fill="white"/>
</g>
<defs>
<clipPath id="clip0_538_2452">
<rect width="63" height="52" fill="white"/>
</clipPath>
</defs>
</svg>
