<svg width="68" height="51" viewBox="0 0 68 51" fill="none" xmlns="http://www.w3.org/2000/svg">
<path d="M24.1483 20.3638C24.1483 24.8401 20.5008 28.4702 16.0029 28.4702C11.505 28.4702 7.85742 24.8401 7.85742 20.3638C7.85742 15.8874 11.505 12.2573 16.0029 12.2573C20.5008 12.2573 24.1483 15.8874 24.1483 20.3638Z" fill="#916CFF"/>
<path d="M32 47.0002C32 36.7558 24.8392 28.4712 16 28.4712C7.16084 28.4712 0 36.7558 0 47.0002H32Z" fill="#916CFF"/>
<rect x="24" y="22" width="34" height="28" rx="4" fill="#51CBFF"/>
<path d="M19 47H63C63 49.2091 61.2091 51 59 51H23C20.7909 51 19 49.2091 19 47Z" fill="#51CBFF"/>
<mask id="mask0_538_2462" style="mask-type:alpha" maskUnits="userSpaceOnUse" x="0" y="12" width="32" height="35">
<path d="M24.1474 20.3637C24.1474 24.84 20.4998 28.47 16.0019 28.47C11.504 28.47 7.85645 24.84 7.85645 20.3637C7.85645 15.8874 11.504 12.2573 16.0019 12.2573C20.4998 12.2573 24.1474 15.8874 24.1474 20.3637Z" fill="#916CFF"/>
<path d="M32 47C32 36.7557 24.8392 28.4712 16 28.4712C7.16084 28.4712 0 36.7557 0 47H32Z" fill="#916CFF"/>
</mask>
<g mask="url(#mask0_538_2462)">
<rect x="23.7422" y="25.5933" width="28.9032" height="24.6213" rx="4" fill="#234AD7"/>
</g>
<path d="M64.9515 0H46.0485C44.3663 0 43 1.2521 43 2.7936V12.1076C43 13.6491 44.3663 14.9012 46.0485 14.9012H47.6726V19L52.5192 14.9012H64.9515C66.6337 14.9012 68 13.6491 68 12.1076V2.7936C68 1.2521 66.6337 0 64.9515 0Z" fill="#51CBFF"/>
<path d="M50.1318 6.23633V8.23633" stroke="white" stroke-width="3.5"/>
<path d="M55.3799 6.23633V8.23633" stroke="white" stroke-width="3.5"/>
<path d="M60.6338 6.23633V8.23633" stroke="white" stroke-width="3.5"/>
</svg>
