<svg width="17" height="19" viewBox="0 0 17 19" fill="none" xmlns="http://www.w3.org/2000/svg">
<g id="Calendar">
<path id="Fill 1" fill-rule="evenodd" clip-rule="evenodd" d="M16.222 8.25359H1.36865C1.02365 8.25359 0.743652 7.97359 0.743652 7.62859C0.743652 7.28359 1.02365 7.00359 1.36865 7.00359H16.222C16.567 7.00359 16.847 7.28359 16.847 7.62859C16.847 7.97359 16.567 8.25359 16.222 8.25359Z" fill="black"/>
<path id="Fill 3" fill-rule="evenodd" clip-rule="evenodd" d="M12.501 11.508C12.156 11.508 11.8727 11.228 11.8727 10.883C11.8727 10.538 12.1485 10.258 12.4935 10.258H12.501C12.846 10.258 13.126 10.538 13.126 10.883C13.126 11.228 12.846 11.508 12.501 11.508Z" fill="black"/>
<path id="Fill 5" fill-rule="evenodd" clip-rule="evenodd" d="M8.80302 11.508C8.45802 11.508 8.17468 11.228 8.17468 10.883C8.17468 10.538 8.45052 10.258 8.79552 10.258H8.80302C9.14802 10.258 9.42802 10.538 9.42802 10.883C9.42802 11.228 9.14802 11.508 8.80302 11.508Z" fill="black"/>
<path id="Fill 7" fill-rule="evenodd" clip-rule="evenodd" d="M5.09743 11.508C4.75243 11.508 4.46826 11.228 4.46826 10.883C4.46826 10.538 4.74493 10.258 5.08993 10.258H5.09743C5.44243 10.258 5.72243 10.538 5.72243 10.883C5.72243 11.228 5.44243 11.508 5.09743 11.508Z" fill="black"/>
<path id="Fill 9" fill-rule="evenodd" clip-rule="evenodd" d="M12.501 14.7469C12.156 14.7469 11.8727 14.4669 11.8727 14.1219C11.8727 13.7769 12.1485 13.4969 12.4935 13.4969H12.501C12.846 13.4969 13.126 13.7769 13.126 14.1219C13.126 14.4669 12.846 14.7469 12.501 14.7469Z" fill="black"/>
<path id="Fill 11" fill-rule="evenodd" clip-rule="evenodd" d="M8.80302 14.7469C8.45802 14.7469 8.17468 14.4669 8.17468 14.1219C8.17468 13.7769 8.45052 13.4969 8.79552 13.4969H8.80302C9.14802 13.4969 9.42802 13.7769 9.42802 14.1219C9.42802 14.4669 9.14802 14.7469 8.80302 14.7469Z" fill="black"/>
<path id="Fill 13" fill-rule="evenodd" clip-rule="evenodd" d="M5.09743 14.7469C4.75243 14.7469 4.46826 14.4669 4.46826 14.1219C4.46826 13.7769 4.74493 13.4969 5.08993 13.4969H5.09743C5.44243 13.4969 5.72243 13.7769 5.72243 14.1219C5.72243 14.4669 5.44243 14.7469 5.09743 14.7469Z" fill="black"/>
<path id="Fill 15" fill-rule="evenodd" clip-rule="evenodd" d="M12.1613 4.82584C11.8163 4.82584 11.5363 4.54584 11.5363 4.20084V1.45834C11.5363 1.11334 11.8163 0.833336 12.1613 0.833336C12.5063 0.833336 12.7863 1.11334 12.7863 1.45834V4.20084C12.7863 4.54584 12.5063 4.82584 12.1613 4.82584Z" fill="black"/>
<path id="Fill 17" fill-rule="evenodd" clip-rule="evenodd" d="M5.42932 4.82584C5.08432 4.82584 4.80432 4.54584 4.80432 4.20084V1.45834C4.80432 1.11334 5.08432 0.833336 5.42932 0.833336C5.77432 0.833336 6.05432 1.11334 6.05432 1.45834V4.20084C6.05432 4.54584 5.77432 4.82584 5.42932 4.82584Z" fill="black"/>
<g id="Group 21">
<mask id="mask0_159_2025" style="mask-type:luminance" maskUnits="userSpaceOnUse" x="0" y="2" width="17" height="17">
<path id="Clip 20" fill-rule="evenodd" clip-rule="evenodd" d="M0.666626 2.14925H16.9166V18.75H0.666626V2.14925Z" fill="white"/>
</mask>
<g mask="url(#mask0_159_2025)">
<path id="Fill 19" fill-rule="evenodd" clip-rule="evenodd" d="M5.26746 3.39925C3.10663 3.39925 1.91663 4.55175 1.91663 6.64425V14.1851C1.91663 16.3234 3.10663 17.5001 5.26746 17.5001H12.3158C14.4766 17.5001 15.6666 16.3451 15.6666 14.2484V6.64425C15.67 5.61509 15.3933 4.81509 14.8441 4.26509C14.2791 3.69842 13.4083 3.39925 12.3233 3.39925H5.26746ZM12.3158 18.7501H5.26746C2.42996 18.7501 0.666626 17.0009 0.666626 14.1851V6.64425C0.666626 3.87092 2.42996 2.14925 5.26746 2.14925H12.3233C13.7475 2.14925 14.925 2.57592 15.7291 3.38175C16.51 4.16592 16.9208 5.29342 16.9166 6.64592V14.2484C16.9166 17.0251 15.1533 18.7501 12.3158 18.7501Z" fill="black"/>
</g>
</g>
</g>
</svg>
