<svg width="58" height="54" viewBox="0 0 58 54" fill="none" xmlns="http://www.w3.org/2000/svg">
<path d="M11.9999 4C11.9999 1.79086 13.7908 0 15.9999 0H53.9999C56.2091 0 57.9999 1.79086 57.9999 4V45.5V50C57.9999 52.2091 56.2091 54 53.9999 54H50.6399H15.9999C13.7908 54 11.9999 52.2091 11.9999 50V4Z" fill="#51CBFF"/>
<path d="M44 7H26C25.4477 7 25 7.44772 25 8C25 8.55228 25.4477 9 26 9H44C44.5523 9 45 8.55228 45 8C45 7.44772 44.5523 7 44 7Z" fill="white"/>
<path d="M50.6074 14H41.6074C41.0551 14 40.6074 14.4477 40.6074 15C40.6074 15.5523 41.0551 16 41.6074 16H50.6074C51.1596 16 51.6074 15.5523 51.6074 15C51.6074 14.4477 51.1596 14 50.6074 14Z" fill="white"/>
<path d="M50.6074 24H21.6074C21.0551 24 20.6074 24.4477 20.6074 25C20.6074 25.5523 21.0551 26 21.6074 26H50.6074C51.1597 26 51.6074 25.5523 51.6074 25C51.6074 24.4477 51.1597 24 50.6074 24Z" fill="white"/>
<path d="M50.6074 29H21.6074C21.0551 29 20.6074 29.4477 20.6074 30C20.6074 30.5523 21.0551 31 21.6074 31H50.6074C51.1597 31 51.6074 30.5523 51.6074 30C51.6074 29.4477 51.1597 29 50.6074 29Z" fill="white"/>
<path d="M40.6074 34H21.6074C21.0551 34 20.6074 34.4477 20.6074 35C20.6074 35.5523 21.0551 36 21.6074 36H40.6074C41.1597 36 41.6074 35.5523 41.6074 35C41.6074 34.4477 41.1597 34 40.6074 34Z" fill="white"/>
<path d="M48.1074 49C45.6331 49 43.6074 46.9879 43.6074 44.5C43.6074 42.0121 45.6195 40 48.1074 40C50.5953 40 52.6074 42.0121 52.6074 44.5C52.6074 46.9879 50.5953 49 48.1074 49ZM48.1074 41.3595C46.3808 41.3595 44.9669 42.7734 44.9669 44.5C44.9669 46.2266 46.3672 47.6405 48.1074 47.6405C49.8476 47.6405 51.2479 46.2266 51.2479 44.5C51.2479 42.7734 49.8476 41.3595 48.1074 41.3595Z" fill="white"/>
<path d="M50.596 44.5006C50.596 45.8737 49.4812 46.9885 48.1081 46.9885C46.735 46.9885 45.6202 45.8737 45.6202 44.5006C45.6202 43.1275 46.735 42.0127 48.1081 42.0127C49.4812 42.0127 50.596 43.1275 50.596 44.5006Z" fill="white"/>
<path d="M17.365 47.8709C15.775 47.8709 14.47 46.0559 14.47 43.8059C14.47 41.5559 15.49 39.0959 16.15 37.8359C16.54 37.1009 16.765 36.2609 16.765 35.3609C16.765 32.4059 14.365 30.0059 11.41 30.0059C8.45502 30.0059 6.05501 32.4059 6.05501 35.3609C6.05501 36.2609 6.28002 37.1009 6.67002 37.8359C7.33002 39.0959 8.35002 41.5559 8.35002 43.8059C8.35002 46.0559 7.06002 47.8709 5.45501 47.8709H2.575C1.705 47.8709 1 48.5759 1 49.4459V53.9609H21.8201V49.4459C21.8201 48.5759 21.1151 47.8709 20.2451 47.8709H17.365Z" fill="#916CFF"/>
<mask id="mask0_1030_642" style="mask-type:alpha" maskUnits="userSpaceOnUse" x="2" y="30" width="21" height="24">
<path d="M18.5065 47.8986C16.9027 47.8986 15.5865 46.0802 15.5865 43.8259C15.5865 41.5717 16.6153 39.1071 17.281 37.8447C17.6744 37.1083 17.9013 36.2668 17.9013 35.3651C17.9013 32.4045 15.4805 30 12.5 30C9.51945 30 7.0987 32.4045 7.0987 35.3651C7.0987 36.2668 7.32565 37.1083 7.71902 37.8447C8.38473 39.1071 9.41354 41.5717 9.41354 43.8259C9.41354 46.0802 8.11239 47.8986 6.49352 47.8986H3.58862C2.7111 47.8986 2 48.6049 2 49.4765V54H23V49.4765C23 48.6049 22.2889 47.8986 21.4114 47.8986H18.5065Z" fill="#916CFF"/>
</mask>
<g mask="url(#mask0_1030_642)">
<rect width="11" height="24" transform="matrix(-1 0 0 1 23 30)" fill="#1D3CAB"/>
</g>
</svg>
