<svg width="18" height="18" viewBox="0 0 18 18" fill="none" xmlns="http://www.w3.org/2000/svg">
<path d="M10.473 8.99984L17.0278 2.44528C17.4347 2.03838 17.4347 1.37857 17.0278 0.971674C16.6209 0.564781 15.9611 0.564781 15.5542 0.971674L8.99967 7.52688L2.44544 0.971999C2.03855 0.564781 1.37873 0.564781 0.972162 0.971999C0.565594 1.37922 0.565269 2.03871 0.972162 2.4456L7.52737 9.00016L0.972162 15.5544C0.565269 15.9613 0.565269 16.6211 0.972162 17.028C1.37906 17.4349 2.03887 17.4349 2.44577 17.028L9.00033 10.4728L15.5549 17.028C15.9618 17.4349 16.6216 17.4349 17.0285 17.028C17.4354 16.6211 17.4354 15.9613 17.0285 15.5544L10.4733 8.99984H10.473Z" fill="#898D9C"/>
</svg>