<svg width="48" height="48" viewBox="0 0 48 48" fill="none" xmlns="http://www.w3.org/2000/svg">
<g clip-path="url(#clip0_538_1983)">
<path d="M44.5077 18.8405C46.8678 22.9917 46.2858 28.3545 42.7387 31.8977C38.4813 36.145 31.5797 36.145 27.3177 31.8977C25.6862 30.2701 24.6872 28.2585 24.3068 26.1555L31.9601 18.5205L29.5495 16.1111L21.8963 23.7461C19.7882 23.3712 17.7672 22.37 16.1403 20.7424C11.8829 16.4951 11.8829 9.60989 16.1403 5.35806C19.6461 1.86058 24.9484 1.24795 29.0867 3.5156C29.1875 3.41044 29.2791 3.29158 29.3845 3.18642C33.6419 -1.06084 40.5482 -1.06084 44.8056 3.18642C49.063 7.43368 49.063 14.3189 44.8056 18.5707C44.7093 18.6668 44.6039 18.749 44.5077 18.8405Z" fill="#51CBFF"/>
<path d="M31.9603 18.5207L24.307 26.1557C24.1787 25.4151 24.1191 24.6653 24.1375 23.9155C23.3859 23.9338 22.6389 23.8789 21.8965 23.7463L29.5497 16.1113L31.9603 18.5207Z" fill="#0060D3"/>
<path d="M13.8537 36.5839L20.9937 43.7114L18.5877 46.1162L11.4432 38.9887L9.21596 41.206L13.5971 45.5767L11.1866 47.977L6.80542 43.6108L2.41054 47.9998L0 45.595L21.8965 23.7461C22.6389 23.8787 23.3859 23.9335 24.1375 23.9153C24.1192 24.665 24.1787 25.4148 24.307 26.1555L13.8537 36.5839Z" fill="#916CFF"/>
</g>
<defs>
<clipPath id="clip0_538_1983">
<rect width="48" height="48" fill="white"/>
</clipPath>
</defs>
</svg>
