<svg width="112" height="77" viewBox="0 0 112 77" fill="none" xmlns="http://www.w3.org/2000/svg">
<rect width="71" height="77" rx="8" fill="#51CBFF"/>
<mask id="mask0_498_5437" style="mask-type:alpha" maskUnits="userSpaceOnUse" x="0" y="0" width="71" height="77">
<rect width="71" height="77" rx="8" fill="#51CBFF"/>
</mask>
<g mask="url(#mask0_498_5437)">
</g>
<path d="M29.516 31.8888C29.516 34.5964 27.3233 36.7922 24.6193 36.7922C21.9154 36.7922 19.7227 34.5964 19.7227 31.8888C19.7227 29.1811 21.9154 26.9854 24.6193 26.9854C27.3233 26.9854 29.516 29.1811 29.516 31.8888Z" fill="white"/>
<path d="M34.2369 48.0003C34.2369 41.8037 29.9322 36.7925 24.6185 36.7925C19.3048 36.7925 15 41.8037 15 48.0003H34.2369Z" fill="white"/>
<path d="M50.516 31.8888C50.516 34.5964 48.3233 36.7922 45.6193 36.7922C42.9154 36.7922 40.7227 34.5964 40.7227 31.8888C40.7227 29.1811 42.9154 26.9854 45.6193 26.9854C48.3233 26.9854 50.516 29.1811 50.516 31.8888Z" fill="white"/>
<path d="M55.2369 48.0003C55.2369 41.8037 50.9322 36.7925 45.6185 36.7925C40.3048 36.7925 36 41.8037 36 48.0003H55.2369Z" fill="white"/>
<rect x="41" y="48" width="71" height="22" rx="6" fill="#163BBE"/>
<circle cx="53.5" cy="58.5" r="7.5" fill="white"/>
<path d="M52.676 62L49 58.3387L49.7024 57.6391L52.676 60.6032L57.2976 56L58 56.6972L52.676 62Z" fill="#916CFF" stroke="#916CFF" stroke-linejoin="round"/>
</svg>
