<svg width="68" height="54" viewBox="0 0 68 54" fill="none" xmlns="http://www.w3.org/2000/svg">
<path d="M57.48 6.6263C52.0328 1.56542 43.4831 1.83549 38.3793 7.22515L34.0097 11.8398L29.6401 7.22515C24.5245 1.83549 15.9748 1.56542 10.5276 6.6263C5.09228 11.6989 4.81992 20.1768 9.9237 25.5664L15.4656 31.4258L33.9979 51L52.5301 31.4258L58.072 25.5664C63.1758 20.165 62.9153 11.6872 57.4681 6.6263H57.48Z" fill="#51CBFF"/>
<path d="M2 28.7068H30.6609L32.8369 21.0908L37.1889 32.3228L40.8049 23.9922H66" stroke="#916CFF" stroke-width="2.5" stroke-linecap="round" stroke-linejoin="round"/>
<mask id="mask0_1030_631" style="mask-type:alpha" maskUnits="userSpaceOnUse" x="6" y="3" width="56" height="48">
<path d="M57.48 6.6263C52.0328 1.56542 43.4831 1.83549 38.3793 7.22515L34.0097 11.8398L29.6401 7.22515C24.5245 1.83549 15.9748 1.56542 10.5276 6.6263C5.09228 11.6989 4.81992 20.1768 9.9237 25.5664L15.4656 31.4258L33.9979 51L52.5301 31.4258L58.072 25.5664C63.1758 20.165 62.9153 11.6872 57.4681 6.6263H57.48Z" fill="#51CBFF"/>
</mask>
<g mask="url(#mask0_1030_631)">
<path d="M2 28.7493H30.6609L32.8369 21.1333L37.1889 32.3653L40.8049 24.0346H66" stroke="#0060D3" stroke-width="2.5" stroke-linecap="round" stroke-linejoin="round"/>
</g>
</svg>
