<svg width="360" height="128" viewBox="0 0 360 128" fill="none" xmlns="http://www.w3.org/2000/svg">
<path d="M248.156 4.5H288.519C320.275 4.5 346.019 30.2436 346.019 62C346.019 77.7401 333.259 90.5 317.519 90.5H277.656C261.364 90.5 248.156 77.2924 248.156 61V4.5Z" stroke="#51CBFF"/>
<path d="M243.162 5.5H286.019C319.156 5.5 346.019 32.3629 346.019 65.5V68.5C346.019 85.0685 332.588 98.5 316.019 98.5H273.162C256.594 98.5 243.162 85.0685 243.162 68.5V5.5Z" fill="white"/>
<rect x="19" y="20.5" width="315.562" height="93" rx="46.5" fill="#916CFF"/>
<path d="M126.364 59.532V61.368C126.364 66.768 129.028 72.492 134.572 74.796L131.98 78.54C128.128 76.884 125.5 73.644 124.024 69.648C122.548 73.968 119.884 77.604 115.996 79.368L113.296 75.588C118.84 73.104 121.54 67.02 121.54 61.368V59.532H114.628V55.608H133.204V59.532H126.364ZM136.264 52.44H141.016V85.596H136.264V52.44ZM162.865 71.7H169.093V52.44H173.845V77.568H169.093V74.94H162.865V71.7ZM156.493 57.012C154.261 57.012 152.713 57.876 152.713 59.496C152.713 61.116 154.261 61.944 156.493 61.944C158.689 61.944 160.237 61.116 160.237 59.496C160.237 57.876 158.689 57.012 156.493 57.012ZM156.493 65.4C151.633 65.4 148.213 63.024 148.213 59.496C148.213 55.968 151.633 53.556 156.493 53.556C161.317 53.556 164.737 55.968 164.737 59.496C164.737 63.024 161.317 65.4 156.493 65.4ZM154.729 81.24H174.565V85.02H149.977V75.156H154.585V70.728C151.669 70.872 148.897 70.908 146.413 70.908L145.801 67.128C151.849 67.092 159.913 67.02 166.897 66.12L167.221 69.504C164.629 69.972 161.965 70.26 159.301 70.44V76.704H154.729V81.24ZM187.918 74.94C190.15 74.94 191.77 73.428 191.77 70.872C191.77 68.388 190.15 66.84 187.918 66.84C185.686 66.84 184.03 68.388 184.03 70.908C184.03 73.428 185.686 74.94 187.918 74.94ZM187.918 62.988C192.706 62.988 196.27 66.264 196.27 70.872C196.27 75.552 192.706 78.828 187.918 78.828C183.094 78.828 179.494 75.552 179.494 70.872C179.494 66.264 183.094 62.988 187.918 62.988ZM190.258 53.016V57.336H197.458V61.116H178.162V57.336H185.506V53.016H190.258ZM209.122 65.4V69.324H204.37V85.596H199.618V52.44H204.37V65.4H209.122ZM212.576 55.86H228.488C228.488 66.012 225.068 74.292 213.296 79.98L210.812 76.236C219.272 72.168 222.944 66.984 223.628 59.64H212.576V55.86ZM233.564 52.404H238.352V85.56H233.564V52.404Z" fill="white"/>
<mask id="mask0_626_2844" style="mask-type:alpha" maskUnits="userSpaceOnUse" x="2" y="11" width="351" height="116">
<rect x="3.49561" y="11.5" width="348.515" height="115" rx="57.5" stroke="#51CBFF"/>
</mask>
<g mask="url(#mask0_626_2844)">
<rect x="-6.99072" y="61" width="385.465" height="66" fill="#51CBFF"/>
</g>
<path d="M68.9932 120H294.092" stroke="#916CFF"/>
<path d="M68.993 120C57.1544 120 30.8762 114.8 20.4717 94" stroke="#916CFF"/>
<path d="M68.4048 14H293.093" stroke="#916CFF"/>
<path d="M68.9044 14C57.0875 14 30.8573 18.8 20.4717 38" stroke="#916CFF"/>
<ellipse cx="311.068" cy="8.5" rx="7.4896" ry="7.5" fill="#222222"/>
<ellipse cx="247.656" cy="4" rx="3.99445" ry="4" fill="#51CBFF"/>
<ellipse cx="7.4896" cy="49.5" rx="7.4896" ry="7.5" fill="#51CBFF"/>
<ellipse cx="292.594" cy="120" rx="3.99445" ry="4" fill="#51CBFF"/>
<ellipse cx="166.269" cy="122.5" rx="5.49237" ry="5.5" fill="#222222"/>
<path d="M347.018 61C345.187 80 334.336 118 293.592 120" stroke="#51CBFF"/>
<path d="M348.017 65.5H360V73.5H348.017V65.5Z" fill="white"/>
<ellipse cx="347.767" cy="56" rx="9.98613" ry="10" fill="#51CBFF"/>
</svg>
