<svg width="22" height="16" viewBox="0 0 22 16" fill="none" xmlns="http://www.w3.org/2000/svg">
<g id="arrow_right_alt">
<mask id="mask0_140_502" style="mask-type:alpha" maskUnits="userSpaceOnUse" x="0" y="0" width="22" height="16">
<rect id="Bounding box" width="22" height="16" fill="#D9D9D9"/>
</mask>
<g mask="url(#mask0_140_502)">
<path id="arrow_right_alt_2" d="M18.2215 9.12852H1.12836C0.80818 9.12852 0.540082 9.02085 0.324064 8.80552C0.108021 8.59018 0 8.32293 0 8.00376C0 7.68459 0.108021 7.41733 0.324064 7.202C0.540082 6.98666 0.80818 6.87899 1.12836 6.87899H18.2215L13.2683 1.94133C13.0445 1.71829 12.9341 1.45729 12.937 1.15832C12.9399 0.859344 13.0503 0.593528 13.2683 0.360869C13.5017 0.128235 13.7698 0.00806853 14.0726 0.000369881C14.3754 -0.00732877 14.6435 0.105152 14.8769 0.337811L21.6152 7.05491C21.756 7.19526 21.8553 7.34331 21.9132 7.49906C21.9711 7.65478 22 7.82301 22 8.00376C22 8.1845 21.9711 8.35273 21.9132 8.50846C21.8553 8.6642 21.756 8.81225 21.6152 8.9526L14.8769 15.6697C14.6532 15.8927 14.3875 16.0028 14.0798 15.9999C13.7722 15.997 13.5017 15.8793 13.2683 15.6466C13.0503 15.414 12.9375 15.1506 12.9298 14.8564C12.9221 14.5622 13.0349 14.2988 13.2683 14.0662L18.2215 9.12852Z" fill="white" fill-opacity="0.7"/>
</g>
</g>
</svg>
