<svg width="19" height="20" viewBox="0 0 19 20" fill="none" xmlns="http://www.w3.org/2000/svg">
<g id="Document">
<path id="Fill 1" fill-rule="evenodd" clip-rule="evenodd" d="M12.7156 14.9736H5.49561C5.08161 14.9736 4.74561 14.6376 4.74561 14.2236C4.74561 13.8096 5.08161 13.4736 5.49561 13.4736H12.7156C13.1296 13.4736 13.4656 13.8096 13.4656 14.2236C13.4656 14.6376 13.1296 14.9736 12.7156 14.9736Z" fill="black"/>
<path id="Fill 3" fill-rule="evenodd" clip-rule="evenodd" d="M12.7156 10.7874H5.49561C5.08161 10.7874 4.74561 10.4514 4.74561 10.0374C4.74561 9.62335 5.08161 9.28735 5.49561 9.28735H12.7156C13.1296 9.28735 13.4656 9.62335 13.4656 10.0374C13.4656 10.4514 13.1296 10.7874 12.7156 10.7874Z" fill="black"/>
<path id="Fill 5" fill-rule="evenodd" clip-rule="evenodd" d="M8.25061 6.61035H5.49561C5.08161 6.61035 4.74561 6.27435 4.74561 5.86035C4.74561 5.44635 5.08161 5.11035 5.49561 5.11035H8.25061C8.66461 5.11035 9.00061 5.44635 9.00061 5.86035C9.00061 6.27435 8.66461 6.61035 8.25061 6.61035Z" fill="black"/>
<g id="Group 9">
<mask id="mask0_130_1231" style="mask-type:luminance" maskUnits="userSpaceOnUse" x="0" y="0" width="19" height="20">
<path id="Clip 8" fill-rule="evenodd" clip-rule="evenodd" d="M0 0.000244141H18.1647V19.91H0V0.000244141Z" fill="white"/>
</mask>
<g mask="url(#mask0_130_1231)">
<path id="Fill 7" fill-rule="evenodd" clip-rule="evenodd" d="M12.9085 1.5L5.21951 1.504C2.89151 1.518 1.49951 2.958 1.49951 5.357V14.553C1.49951 16.968 2.90451 18.41 5.25551 18.41L12.9445 18.407C15.2725 18.393 16.6645 16.951 16.6645 14.553V5.357C16.6645 2.942 15.2605 1.5 12.9085 1.5ZM5.25651 19.91C2.11251 19.91 -0.000488281 17.757 -0.000488281 14.553V5.357C-0.000488281 2.124 2.04651 0.023 5.21451 0.004L12.9075 0H12.9085C16.0525 0 18.1645 2.153 18.1645 5.357V14.553C18.1645 17.785 16.1175 19.887 12.9495 19.907L5.25651 19.91Z" fill="black"/>
</g>
</g>
</g>
</svg>
