<svg width="23" height="26" viewBox="0 0 23 26" fill="none" xmlns="http://www.w3.org/2000/svg">
<path d="M5.14499 1.03467H17.7294C20.0435 1.03467 21.9242 2.89009 21.9242 5.17315V21.7271H0.950195V5.17315C0.950195 2.89009 2.83086 1.03467 5.14499 1.03467Z" stroke="#222222" stroke-linecap="round" stroke-linejoin="round"/>
<path d="M18.4289 6.20776H4.44629V13.4501H18.4289V6.20776Z" stroke="#222222" stroke-linecap="round" stroke-linejoin="round"/>
<path d="M7.29855 22.1788V22.8962C7.29855 24.0377 6.35822 24.9654 5.20116 24.9654H4.66283C3.50576 24.9654 2.56543 24.0377 2.56543 22.8962V22.1788" stroke="#222222" stroke-linecap="round" stroke-linejoin="round"/>
<path d="M20.3132 22.1788V22.8962C20.3132 24.0377 19.3729 24.9654 18.2158 24.9654H17.6775C16.5204 24.9654 15.5801 24.0377 15.5801 22.8962V22.1788" stroke="#222222" stroke-linecap="round" stroke-linejoin="round"/>
<path d="M3.93264 16.9998H6.70466C7.42034 16.9998 8 17.5964 8 18.3331V18.4098C8 18.7364 7.74417 18.9998 7.42681 18.9998H3.93264C3.41775 18.9998 3 18.5698 3 18.0398V17.9631C3 17.4331 3.41775 17.0031 3.93264 17.0031V16.9998Z" fill="#222222"/>
<path d="M19.0674 18.9998H15.5732C15.2558 18.9998 15 18.7364 15 18.4098V18.3331C15 17.5964 15.5797 16.9998 16.2953 16.9998H19.0674C19.5823 16.9998 20 17.4298 20 17.9598V18.0364C20 18.5664 19.5823 18.9964 19.0674 18.9964V18.9998Z" fill="#222222"/>
<path d="M13.4609 13.4501L15.4255 9.70825" stroke="#222222" stroke-linecap="round" stroke-linejoin="round"/>
<path d="M7.72461 13.4501L9.68917 9.70825" stroke="#222222" stroke-linecap="round" stroke-linejoin="round"/>
</svg>
