<svg width="24" height="24" viewBox="0 0 24 24" fill="none" xmlns="http://www.w3.org/2000/svg">
<g id="Icon">
<path id="Vector" d="M1 11.4994H23C23.2761 11.4994 23.5 11.7232 23.5 11.9994C23.5 12.2755 23.2761 12.4994 23 12.4994H1C0.72386 12.4994 0.5 12.2755 0.5 11.9994C0.5 11.7232 0.72386 11.4994 1 11.4994ZM1 4.5H23C23.2761 4.5 23.5 4.72386 23.5 5C23.5 5.27614 23.2761 5.5 23 5.5H1C0.723857 5.5 0.5 5.27614 0.5 5C0.5 4.72386 0.723857 4.5 1 4.5ZM1 18.4997H23C23.2761 18.4997 23.5 18.7236 23.5 18.9997C23.5 19.2758 23.2761 19.4997 23 19.4997H1C0.72386 19.4997 0.5 19.2758 0.5 18.9997C0.5 18.7236 0.72386 18.4997 1 18.4997Z" fill="black" stroke="black"/>
</g>
</svg>
