<svg width="20" height="20" viewBox="0 0 20 20" fill="none" xmlns="http://www.w3.org/2000/svg">
<g id="Type=close, State=Active">
<path id="Vector" d="M11.4727 10.0003L18.0276 3.44577C18.4345 3.03887 18.4345 2.37906 18.0276 1.97216C17.6207 1.56527 16.9609 1.56527 16.554 1.97216L9.99943 8.52737L3.4452 1.97249C3.0383 1.56527 2.37849 1.56527 1.97192 1.97249C1.56535 2.37971 1.56502 3.0392 1.97192 3.44609L8.52713 10.0007L1.97192 16.5549C1.56502 16.9618 1.56502 17.6216 1.97192 18.0285C2.37881 18.4354 3.03863 18.4354 3.44552 18.0285L10.0001 11.4733L16.5546 18.0285C16.9615 18.4354 17.6214 18.4354 18.0282 18.0285C18.4351 17.6216 18.4351 16.9618 18.0282 16.5549L11.473 10.0003H11.4727Z" fill="black"/>
</g>
</svg>
