<svg width="20" height="20" viewBox="0 0 20 20" fill="none" xmlns="http://www.w3.org/2000/svg">
<g id="Icon">
<path id="Vector" d="M11.4726 10L18.0275 3.44546C18.4344 3.03857 18.4344 2.37875 18.0275 1.97186C17.6206 1.56496 16.9608 1.56496 16.5539 1.97186L9.99937 8.52707L3.44514 1.97218C3.03824 1.56496 2.37842 1.56496 1.97186 1.97218C1.56529 2.3794 1.56496 3.03889 1.97186 3.44579L8.52707 10.0003L1.97186 16.5546C1.56496 16.9615 1.56496 17.6213 1.97186 18.0282C2.37875 18.4351 3.03857 18.4351 3.44546 18.0282L10 11.473L16.5546 18.0282C16.9615 18.4351 17.6213 18.4351 18.0282 18.0282C18.4351 17.6213 18.4351 16.9615 18.0282 16.5546L11.473 10H11.4726Z" fill="white"/>
</g>
</svg>
