<svg width="16" height="16" viewBox="0 0 16 16" fill="none" xmlns="http://www.w3.org/2000/svg">
<g id="Icon">
<g id="Vector">
<path fill-rule="evenodd" clip-rule="evenodd" d="M6.83182 12.2966C9.85031 12.2966 12.2973 9.84965 12.2973 6.83116C12.2973 3.81268 9.85031 1.36571 6.83182 1.36571C3.81333 1.36571 1.36636 3.81268 1.36636 6.83116C1.36636 9.84965 3.81333 12.2966 6.83182 12.2966ZM6.83182 13.663C10.6049 13.663 13.6636 10.6043 13.6636 6.83116C13.6636 3.05805 10.6049 -0.000656128 6.83182 -0.000656128C3.05871 -0.000656128 0 3.05805 0 6.83116C0 10.6043 3.05871 13.663 6.83182 13.663Z" fill="#767676"/>
<path fill-rule="evenodd" clip-rule="evenodd" d="M10.7085 10.7078C10.9629 10.4533 11.3754 10.4533 11.6299 10.7078L15.5393 14.6172C15.7937 14.8716 15.7937 15.2842 15.5393 15.5386C15.2848 15.7931 14.8723 15.7931 14.6178 15.5386L10.7085 11.6292C10.454 11.3748 10.454 10.9622 10.7085 10.7078Z" fill="#767676"/>
</g>
</g>
</svg>
