<svg width="16" height="16" viewBox="0 0 16 16" fill="none" xmlns="http://www.w3.org/2000/svg">
<g id="Icon">
<g id="Vector">
<path fill-rule="evenodd" clip-rule="evenodd" d="M1.33333 7.37507L1.33333 14.667H14.6667V7.37507L8 1.74544L1.33333 7.37507ZM0 7.37507V14.667C0 15.4034 0.596954 16.0003 1.33333 16.0003H14.6667C15.403 16.0003 16 15.4034 16 14.667V7.37507C16 6.98241 15.8269 6.60971 15.5269 6.35637L8.86024 0.726736C8.36346 0.307233 7.63654 0.307234 7.13976 0.726737L0.473092 6.35637C0.173084 6.60971 0 6.98241 0 7.37507Z" fill="black"/>
<path fill-rule="evenodd" clip-rule="evenodd" d="M10 14.667V12.667C10 11.5624 9.10457 10.667 8 10.667C6.89543 10.667 6 11.5624 6 12.667V14.667H10ZM8 9.33364C6.15905 9.33364 4.66667 10.826 4.66667 12.667V16.0003H11.3333V12.667C11.3333 10.826 9.84095 9.33364 8 9.33364Z" fill="black"/>
</g>
</g>
</svg>
