<svg width="16" height="16" viewBox="0 0 16 16" fill="none" xmlns="http://www.w3.org/2000/svg">
<g id="Icon">
<g id="Vector">
<path d="M14.6667 10.6663V11.9996C14.6667 12.5301 14.456 13.0388 14.0809 13.4138C13.7058 13.7889 13.1971 13.9996 12.6667 13.9996H3.33333C2.8029 13.9996 2.29419 13.7889 1.91912 13.4138C1.54405 13.0388 1.33333 12.5301 1.33333 11.9996V10.6663C1.33333 10.4895 1.2631 10.3199 1.13807 10.1949C1.01305 10.0699 0.843478 9.99963 0.666667 9.99963C0.489856 9.99963 0.320286 10.0699 0.195262 10.1949C0.0702379 10.3199 -7.72866e-09 10.4895 0 10.6663L5.82821e-08 11.9996C0.00105867 12.8834 0.352588 13.7306 0.97748 14.3555C1.60237 14.9804 2.4496 15.3319 3.33333 15.333H12.6667C13.5504 15.3319 14.3976 14.9804 15.0225 14.3555C15.6474 13.7306 15.9989 12.8834 16 11.9996V10.6663C16 10.4895 15.9298 10.3199 15.8047 10.1949C15.6797 10.0699 15.5101 9.99962 15.3333 9.99962C15.1565 9.99962 14.987 10.0699 14.8619 10.1949C14.7369 10.3199 14.6667 10.4895 14.6667 10.6663Z" fill="black"/>
<path d="M7.33338 1.99967L7.35471 10.5177C7.24611 10.4592 7.14606 10.3861 7.05738 10.3003L4.47138 7.71434C4.40988 7.65067 4.33632 7.59988 4.25498 7.56494C4.17365 7.53 4.08616 7.51161 3.99765 7.51084C3.90913 7.51007 3.82134 7.52694 3.73941 7.56046C3.65748 7.59398 3.58304 7.64348 3.52045 7.70608C3.45785 7.76867 3.40835 7.84311 3.37483 7.92504C3.34131 8.00697 3.32444 8.09476 3.32521 8.18328C3.32598 8.2718 3.34437 8.35928 3.37931 8.44061C3.41425 8.52195 3.46504 8.59551 3.52871 8.65701L6.11471 11.2443C6.61479 11.7443 7.29294 12.0251 8.00005 12.0251C8.70715 12.0251 9.38531 11.7443 9.88538 11.2443L12.4714 8.65834C12.5351 8.59684 12.5858 8.52328 12.6208 8.44195C12.6557 8.36061 12.6741 8.27313 12.6749 8.18461C12.6757 8.09609 12.6588 8.0083 12.6253 7.92637C12.5917 7.84444 12.5422 7.77001 12.4796 7.70741C12.417 7.64482 12.3426 7.59532 12.2607 7.5618C12.1788 7.52827 12.091 7.51141 12.0024 7.51218C11.9139 7.51294 11.8264 7.53134 11.7451 7.56628C11.6638 7.60121 11.5902 7.652 11.5287 7.71568L8.94271 10.3017C8.86588 10.3763 8.78038 10.4414 8.68805 10.4957L8.66671 1.99967C8.66671 1.82286 8.59647 1.65329 8.47145 1.52827C8.34643 1.40325 8.17686 1.33301 8.00005 1.33301C7.82323 1.33301 7.65367 1.40325 7.52864 1.52827C7.40362 1.65329 7.33338 1.82286 7.33338 1.99967Z" fill="black"/>
</g>
</g>
</svg>
